<svg xmlns="http://www.w3.org/2000/svg" width="256" height="256" viewBox="0 0 100 100"><rect width="100" height="100" rx="20" fill="#3B82F6"></rect><path d="M16.76 60.77L16.76 60.77Q19.70 60.77 20.90 59.81Q22.10 58.85 22.10 57.65L22.10 57.65Q22.10 56.45 21.14 55.76Q20.18 55.07 18.44 54.47L18.44 54.47L15.92 53.63Q13.28 52.73 11.12 51.80Q8.96 50.87 7.40 49.55Q5.84 48.23 4.97 46.40Q4.10 44.57 4.10 41.93L4.10 41.93Q4.10 36.83 8.03 33.77Q11.96 30.71 19.04 30.71L19.04 30.71Q21.62 30.71 23.84 31.07Q26.06 31.43 27.65 32.18Q29.24 32.93 30.14 34.10Q31.04 35.27 31.04 36.83L31.04 36.83Q31.04 38.39 30.32 39.50Q29.60 40.61 28.58 41.39L28.58 41.39Q27.26 40.55 25.04 39.92Q22.82 39.29 20.18 39.29L20.18 39.29Q17.48 39.29 16.22 40.04Q14.96 40.79 14.96 41.93L14.96 41.93Q14.96 42.83 15.74 43.40Q16.52 43.97 18.08 44.45L18.08 44.45L21.26 45.47Q26.90 47.27 29.93 50.12Q32.96 52.97 32.96 57.77L32.96 57.77Q32.96 60.29 31.94 62.42Q30.92 64.55 28.91 66.08Q26.90 67.61 23.93 68.45Q20.96 69.29 17.12 69.29L17.12 69.29Q14.36 69.29 11.99 68.84Q9.62 68.39 7.85 67.52Q6.08 66.65 5.09 65.36Q4.10 64.07 4.10 62.39L4.10 62.39Q4.10 60.65 5.12 59.42Q6.14 58.19 7.34 57.53L7.34 57.53Q9.02 58.85 11.45 59.81Q13.88 60.77 16.76 60.77ZM54.32 46.19L54.32 46.19Q52.82 46.19 51.47 46.67Q50.12 47.15 49.13 48.11Q48.14 49.07 47.54 50.48Q46.94 51.89 46.94 53.75L46.94 53.75Q46.94 57.47 49.04 59.27Q51.14 61.07 54.26 61.07L54.26 61.07Q56.06 61.07 57.44 60.62Q58.82 60.17 59.84 59.69L59.84 59.69Q60.98 60.53 61.55 61.49Q62.12 62.45 62.12 63.83L62.12 63.83Q62.12 66.23 59.75 67.67Q57.38 69.11 53 69.11L53 69.11Q49.22 69.11 46.19 68.12Q43.16 67.13 41.03 65.18Q38.90 63.23 37.76 60.38Q36.62 57.53 36.62 53.75L36.62 53.75Q36.62 49.79 37.91 46.85Q39.20 43.91 41.42 41.99Q43.64 40.07 46.55 39.11Q49.46 38.15 52.70 38.15L52.70 38.15Q57.02 38.15 59.36 39.71Q61.70 41.27 61.70 43.73L61.70 43.73Q61.70 44.87 61.16 45.86Q60.62 46.85 59.90 47.57L59.90 47.57Q58.88 47.09 57.44 46.64Q56 46.19 54.32 46.19ZM95.90 49.43L95.90 68.15Q95.24 68.33 94.01 68.51Q92.78 68.69 91.34 68.69L91.34 68.69Q88.34 68.69 87.02 67.70Q85.70 66.71 85.70 63.89L85.70 63.89L85.70 49.73Q85.70 47.87 84.59 47.00Q83.48 46.13 81.68 46.13L81.68 46.13Q80.48 46.13 79.43 46.43Q78.38 46.73 77.42 47.21L77.42 47.21L77.42 68.15Q76.76 68.33 75.53 68.51Q74.30 68.69 72.86 68.69L72.86 68.69Q69.86 68.69 68.54 67.70Q67.22 66.71 67.22 63.89L67.22 63.89L67.22 45.83Q67.22 44.21 67.91 43.19Q68.60 42.17 69.80 41.33L69.80 41.33Q71.84 39.89 74.93 39.02Q78.02 38.15 81.80 38.15L81.80 38.15Q88.58 38.15 92.24 41.12Q95.90 44.09 95.90 49.43L95.90 49.43Z" fill="#fff"></path></svg>